<svg width="34" height="23" viewBox="0 0 34 23" version="1.1" xmlns="http://www.w3.org/2000/svg" xmlns:xlink="http://www.w3.org/1999/xlink">
<title>Vector</title>
<desc>Created using Figma</desc>
<g id="Canvas" transform="matrix(0.75 0 0 0.75 -832.5 -360.75)">
<g id="Vector">
<use xlink:href="#path0_stroke" transform="translate(1111 482)"/>
</g>
</g>
<defs>
<path id="path0_stroke" d="M 42.4941 28L 42.4941 29L 43.4941 29L 43.4941 28L 42.4941 28ZM 42.4941 0L 43.4941 0L 43.4941 -1L 42.4941 -1L 42.4941 0ZM 0 28L -1 28L -1 29L 0 29L 0 28ZM 0 0L 0 -1L -1 -1L -1 0L 0 0ZM 43.4941 28L 43.4941 0L 41.4941 0L 41.4941 28L 43.4941 28ZM 21.1223 19.1066L 26.8135 14.4399L 25.5453 12.8934L 19.8542 17.5601L 21.1223 19.1066ZM 26.8216 14.4332L 43.1363 0.766576L 41.852 -0.766576L 25.5373 12.9001L 26.8216 14.4332ZM 43.1541 27.2487L 26.8394 12.9154L 25.5194 14.4179L 41.8341 28.7513L 43.1541 27.2487ZM 42.4941 -1L 20.4882 -1L 20.4882 1L 42.4941 1L 42.4941 -1ZM 42.4941 27L 20.4882 27L 20.4882 29L 42.4941 29L 42.4941 27ZM 1 28L 1 0L -1 0L -1 28L 1 28ZM 22.64 17.5601L 16.9488 12.8934L 15.6806 14.4399L 21.3718 19.1066L 22.64 17.5601ZM 16.9569 12.9001L 0.642153 -0.766576L -0.642153 0.766576L 15.6726 14.4332L 16.9569 12.9001ZM 0.660015 28.7513L 16.9747 14.4179L 15.6547 12.9154L -0.660015 27.2487L 0.660015 28.7513ZM 0 1L 22.0059 1L 22.0059 -1L 0 -1L 0 1ZM 0 29L 22.0059 29L 22.0059 27L 0 27L 0 29Z"/>
</defs>
</svg>
