<svg width="26" height="24" viewBox="0 0 26 24" version="1.1" xmlns="http://www.w3.org/2000/svg" xmlns:xlink="http://www.w3.org/1999/xlink">
<title>lin</title>
<desc>Created using Figma</desc>
<g id="Canvas" transform="matrix(0.75 0 0 0.75 -1673.25 -358.5)">
<g id="lin">
<g id="Group">
<g id="LinkedIn">
<use xlink:href="#path0_fill" transform="translate(2231 478)"/>
</g>
</g>
</g>
</g>
<defs>
<path id="path0_fill" d="M 33.4348 19.5878L 33.4348 31.9489L 26.2686 31.9489L 26.2686 20.4157C 26.2686 17.5185 25.2321 15.5412 22.6382 15.5412C 20.6581 15.5412 19.4797 16.8737 18.9613 18.1627C 18.7722 18.6235 18.7236 19.2649 18.7236 19.91L 18.7236 31.9489L 11.555 31.9489C 11.555 31.9489 11.6516 12.4155 11.555 10.3917L 18.7229 10.3917L 18.7229 13.4473C 18.7084 13.4702 18.6895 13.4948 18.6758 13.517L 18.7229 13.517L 18.7229 13.4473C 19.6752 11.9805 21.376 9.88522 25.1827 9.88522C 29.8991 9.88514 33.4348 12.9663 33.4348 19.5878ZM 4.0564 -3.02463e-08C 1.60404 -3.02463e-08 0 1.60855 0 3.72385C 0 5.79306 1.55764 7.45043 3.96125 7.45043L 4.00914 7.45043C 6.50899 7.45043 8.06367 5.79337 8.06367 3.72385C 8.01657 1.60855 6.50899 -3.02463e-08 4.0564 -3.02463e-08ZM 0.42575 31.9489L 7.59159 31.9489L 7.59159 10.3917L 0.42575 10.3917L 0.42575 31.9489Z"/>
</defs>
</svg>
