<svg width="31" height="45" viewBox="0 0 31 45" version="1.1" xmlns="http://www.w3.org/2000/svg" xmlns:xlink="http://www.w3.org/1999/xlink">
<title>location</title>
<desc>Created using Figma</desc>
<g id="Canvas" transform="matrix(0.7 0 0 0.7 -4273.5 -28.7)">
<g id="location">
<use xlink:href="#path0_fill" transform="translate(6105 41.0006)"/>
<use xlink:href="#path1_fill" transform="translate(6105 41.0006)"/>
</g>
</g>
<defs>
<path id="path0_fill" fill-rule="evenodd" d="M 21.2096 1.99993C 15.2142 2.0431 9.53598 4.69954 6.98697 7.33035C 4.31676 10.0863 0.714512 15.1708 2.46089 23.9022C 2.88898 26.0426 4.30784 29.3835 6.27047 33.2759C 8.22038 37.1437 10.6469 41.4413 13.0274 45.4734C 15.4073 49.5045 17.7277 53.2463 19.4574 55.9873C 20.2878 57.3031 20.9798 58.3846 21.4759 59.1551C 21.968 58.3848 22.654 57.3044 23.4769 55.9904C 25.1935 53.2496 27.4965 49.508 29.8588 45.477C 32.2218 41.445 34.6309 37.1474 36.5678 33.2797C 38.5171 29.3876 39.9282 26.0458 40.3566 23.9038C 42.103 15.1724 38.5007 10.0879 35.8305 7.33196C 33.2251 4.64297 27.3507 1.92721 21.2097 2.00253L 21.2096 1.99993ZM 21.6323 0.00167469C 15.0023 -0.079644 8.579 2.81306 5.5506 5.93865C 2.58703 8.99732 -1.41584 14.7171 0.499731 24.2945C 0.987121 26.7313 2.52586 30.2916 4.48465 34.1764C 6.45617 38.0858 8.9149 42.4413 11.3052 46.4902C 13.6962 50.54 16.0321 54.307 17.7661 57.0546C 18.6337 58.4295 19.3531 59.5531 19.8542 60.3309C 20.1051 60.7203 20.3022 61.0245 20.4361 61.2304L 20.5894 61.4659L 20.6288 61.5264L 20.6389 61.5418L 20.6415 61.5458L 20.6422 61.5468C 20.6424 61.547 20.6425 61.5472 21.4791 60.9994L 20.6422 61.5468L 21.4823 62.8298L 22.3176 61.5442L 21.4791 60.9994C 22.3176 61.5442 22.3175 61.5445 22.3176 61.5442L 22.3186 61.5428L 22.3211 61.5388L 22.3312 61.5234L 22.3703 61.463L 22.5224 61.2275C 22.6552 61.0216 22.8508 60.7174 23.0998 60.328C 23.597 59.5503 24.3109 58.4268 25.1719 57.052C 26.8927 54.3046 29.2109 50.5378 31.5843 46.4882C 33.9569 42.4396 36.3978 38.0845 38.356 34.1754C 40.3017 30.2905 41.8307 26.7314 42.3178 24.2961C 44.2333 14.7187 40.2305 8.99892 37.2669 5.94025C 34.3066 2.88499 28.1025 0.0516787 21.6323 0.00167469Z"/>
<path id="path1_fill" fill-rule="evenodd" d="M 21.4794 28.2952C 25.5084 28.2952 28.7746 25.029 28.7746 20.9999C 28.7746 16.9709 25.5084 13.7047 21.4794 13.7047C 17.4503 13.7047 14.1841 16.9709 14.1841 20.9999C 14.1841 25.029 17.4503 28.2952 21.4794 28.2952ZM 21.4794 30.2952C 26.613 30.2952 30.7746 26.1336 30.7746 20.9999C 30.7746 15.8663 26.613 11.7047 21.4794 11.7047C 16.3457 11.7047 12.1841 15.8663 12.1841 20.9999C 12.1841 26.1336 16.3457 30.2952 21.4794 30.2952Z"/>
</defs>
</svg>
