<svg width="29" height="26" viewBox="0 0 29 26" version="1.1" xmlns="http://www.w3.org/2000/svg" xmlns:xlink="http://www.w3.org/1999/xlink">
<title>med</title>
<desc>Created using Figma</desc>
<g id="Canvas" transform="matrix(0.75 0 0 0.75 -1621.5 -357.75)">
<g id="med">
<use xlink:href="#path0_fill" transform="translate(2163 478)"/>
<use xlink:href="#path1_fill" transform="translate(2163 478)"/>
<use xlink:href="#path2_stroke" transform="translate(2163 478)"/>
</g>
</g>
<defs>
<path id="path0_fill" d="M 1.46277 0.763622C 0.796998 0.416062 0 0.899062 0 1.6501L 0 25.4713C 0 25.8365 0.199086 26.1727 0.519335 26.3482L 9.25625 31.1373C 9.92268 31.5026 10.7369 31.0203 10.7369 30.2604L 10.7369 19.898L 10.7369 5.60507L 1.46277 0.763622Z"/>
<path id="path1_fill" d="M 23.1415 25.9067L 35.6151 5.60507L 23.8916 0.377472C 23.4141 0.164526 22.8531 0.355438 22.6045 0.815484L 15.6265 13.7324L 22.8723 25.7763L 23.1415 25.9067Z"/>
<path id="path2_stroke" d="M 9.25625 31.1373L 8.77559 32.0142L 9.25625 31.1373ZM 10.7369 5.60507L 11.5938 5.08955L 11.4489 4.84868L 11.1997 4.71859L 10.7369 5.60507ZM 22.9502 25.9058L 22.0933 26.4213L 22.9502 25.9058ZM 35.6151 5.60507L 36.6151 5.60507L 36.6151 4.95606L 36.0224 4.69175L 35.6151 5.60507ZM 23.8916 0.377472L 24.2989 -0.535843L 23.8916 0.377472ZM 23.1415 25.9067L 22.7055 26.8067L 23.1415 25.9067ZM 0.519335 26.3482L 0.0386697 27.2251L 0.519335 26.3482ZM 34.1792 31.2533L 34.6151 30.3533L 34.1792 31.2533ZM 22.6045 0.815484L 23.4844 1.29079L 22.6045 0.815484ZM -1 1.6501L -1 25.4713L 1 25.4713L 1 1.6501L -1 1.6501ZM 0.0386697 27.2251L 8.77559 32.0142L 9.73692 30.2604L 1 25.4713L 0.0386697 27.2251ZM 11.1997 4.71859L 1.92555 -0.122855L 1 1.6501L 10.2741 6.49154L 11.1997 4.71859ZM 34.6151 5.60507L 34.6151 30.3533L 36.6151 30.3533L 36.6151 5.60507L 34.6151 5.60507ZM 11.7369 30.2604L 11.7369 19.898L 9.73692 19.898L 9.73692 30.2604L 11.7369 30.2604ZM 11.7369 19.898L 11.7369 5.60507L 9.73692 5.60507L 9.73692 19.898L 11.7369 19.898ZM 9.88004 6.12058L 14.7696 14.2479L 16.4833 13.2169L 11.5938 5.08955L 9.88004 6.12058ZM 36.0224 4.69175L 24.2989 -0.535843L 23.4844 1.29079L 35.2079 6.51838L 36.0224 4.69175ZM 21.7247 0.34018L 14.7466 13.2571L 16.5063 14.2077L 23.4844 1.29079L 21.7247 0.34018ZM 23.9935 26.4302L 36.4672 6.12857L 34.7631 5.08157L 22.2894 25.3832L 23.9935 26.4302ZM 14.7696 14.2479L 22.0154 26.2918L 23.7292 25.2608L 16.4833 13.2169L 14.7696 14.2479ZM 22.4363 26.6763L 22.7055 26.8067L 23.5774 25.0067L 23.3082 24.8763L 22.4363 26.6763ZM 22.0154 26.2918L 22.0933 26.4213L 23.8071 25.3903L 23.7292 25.2608L 22.0154 26.2918ZM 34.6151 30.3533L 23.5774 25.0067L 22.7055 26.8067L 33.7433 32.1533L 34.6151 30.3533ZM 23.3082 24.8763L 11.1729 18.998L 10.301 20.798L 22.4363 26.6763L 23.3082 24.8763ZM 1 1.6501L 1.92555 -0.122855C 0.593995 -0.817974 -1 0.148027 -1 1.6501L 1 1.6501ZM -1 25.4713C -1 26.2017 -0.601828 26.8741 0.0386697 27.2251L 1 25.4713L -1 25.4713ZM 8.77559 32.0142C 10.1084 32.7448 11.7369 31.7803 11.7369 30.2604L 9.73692 30.2604L 8.77559 32.0142ZM 22.0933 26.4213C 22.5231 27.1357 23.5571 27.1405 23.9935 26.4302L 22.2895 25.3832C 22.638 24.8159 23.4638 24.8197 23.8071 25.3903L 22.0933 26.4213ZM 34.6151 30.3533L 33.7433 32.1533C 35.0714 32.7967 36.6151 31.8291 36.6151 30.3533L 34.6151 30.3533ZM 24.2989 -0.535843C 23.3438 -0.961736 22.2218 -0.579911 21.7247 0.34018L 23.4844 1.29079L 24.2989 -0.535843Z"/>
</defs>
</svg>
