<svg width="39" height="24" viewBox="0 0 39 24" version="1.1" xmlns="http://www.w3.org/2000/svg" xmlns:xlink="http://www.w3.org/1999/xlink">
<title>beh</title>
<desc>Created using Figma</desc>
<g id="Canvas" transform="matrix(0.75 0 0 0.75 -1722 -358.5)">
<g id="beh">
<g id="Group">
<g id="Behance">
<use xlink:href="#path0_fill" transform="translate(2296 478)"/>
</g>
</g>
</g>
</g>
<defs>
<path id="path0_fill" d="M 46.3699 4.52117L 33.5042 4.52117L 33.5042 1.32544L 46.3709 1.32544L 46.3709 4.52117L 46.3699 4.52117ZM 24.9393 17.6258C 25.7694 18.9116 26.1843 20.4728 26.1843 22.3057C 26.1843 24.2012 25.7166 25.9016 24.765 27.4036C 24.1596 28.3975 23.408 29.2371 22.505 29.913C 21.4879 30.6947 20.2837 31.2307 18.8994 31.5171C 17.5107 31.804 16.0076 31.9489 14.3885 31.9489L 0 31.9489L 0 1.96727e-07L 15.4295 1.96727e-07C 19.3187 0.06327 22.0759 1.19007 23.7041 3.40296C 24.6811 4.76016 25.1652 6.3887 25.1652 8.28166C 25.1652 10.2349 24.6752 11.7978 23.6887 12.9852C 23.1399 13.651 22.3292 14.2566 21.256 14.8032C 22.8816 15.3983 24.115 16.3354 24.9393 17.6258ZM 7.36819 12.5958L 14.1287 12.5958C 15.5181 12.5958 16.6412 12.3318 17.5062 11.8039C 18.3706 11.2768 18.8019 10.34 18.8019 8.99482C 18.8019 7.5087 18.2308 6.52229 17.0858 6.04752C 16.1017 5.71768 14.8425 5.54781 13.3146 5.54781L 7.36819 5.54781L 7.36819 12.5958ZM 19.4528 21.8493C 19.4528 20.1898 18.7745 19.0424 17.4207 18.4268C 16.6636 18.0769 15.5954 17.8981 14.2258 17.8853L 7.36819 17.8853L 7.36819 26.3995L 14.1197 26.3995C 15.5067 26.3995 16.5803 26.2179 17.355 25.8392C 18.7522 25.1427 19.4528 23.8173 19.4528 21.8493ZM 51.1434 16.6518C 51.2988 17.6971 51.3691 19.2136 51.3406 21.1959L 34.6782 21.1959C 34.7701 23.4958 35.5641 25.1042 37.0699 26.0246C 37.978 26.6017 39.079 26.8836 40.3683 26.8836C 41.7278 26.8836 42.8358 26.5399 43.6888 25.8334C 44.1535 25.4589 44.5634 24.9303 44.9179 24.2634L 51.0252 24.2634C 50.8652 25.6218 50.1299 26.9995 48.8084 28.3996C 46.7609 30.6249 43.8894 31.7407 40.2016 31.7407C 37.1551 31.7407 34.4702 30.7996 32.1398 28.9243C 29.817 27.0425 28.6505 23.9905 28.6505 19.7568C 28.6505 15.7867 29.6978 12.7479 31.7994 10.6328C 33.9088 8.51373 36.6311 7.45904 39.9867 7.45904C 41.9756 7.45904 43.7685 7.81454 45.368 8.52925C 46.9626 9.24468 48.2804 10.3706 49.3182 11.9181C 50.2575 13.2809 50.8615 14.8567 51.1434 16.6518ZM 45.1319 17.248C 45.0199 15.6576 44.489 14.4539 43.5329 13.6313C 42.5847 12.8064 41.4001 12.3923 39.9867 12.3923C 38.4484 12.3923 37.2606 12.8349 36.4166 13.705C 35.5668 14.5732 35.0381 15.7536 34.8214 17.2481L 45.1319 17.2481L 45.1319 17.248Z"/>
</defs>
</svg>
