<?xml version="1.0" encoding="UTF-8"?>
<svg width="375px" height="259px" viewBox="0 0 375 259" version="1.1" xmlns="http://www.w3.org/2000/svg" xmlns:xlink="http://www.w3.org/1999/xlink">
    <!-- Generator: Sketch 50 (54983) - http://www.bohemiancoding.com/sketch -->
    <title>Group</title>
    <desc>Created with Sketch.</desc>
    <defs></defs>
    <g id="4400-proj-2-haiku" stroke="none" stroke-width="1" fill="none" fill-rule="evenodd" stroke-linecap="square">
        <g id="Artboard" transform="translate(0.000000, -161.000000)" stroke="#979797">
            <g id="Group" transform="translate(-1.000000, 161.000000)">
                <g id="left-wall">
                    <path d="M167.5,55.5 L206.5,55.5" id="Line-6"></path>
                    <path d="M167.5,91.5 L206.5,91.5" id="Line-6-Copy"></path>
                    <path d="M0.982285935,258.017714 L40.0288224,218.971178" id="Line"></path>
                    <path d="M0.982285935,40.0177141 L40.0288224,0.971177588" id="Line-Copy-2"></path>
                    <path d="M113.5,145.5 L167.5,91.5" id="Line-Copy"></path>
                    <path d="M39.5,0.497695865 L39.5,217.5" id="Line-2"></path>
                    <path d="M113.5,1.5 L113.5,145.5" id="Line-2-Copy"></path>
                    <path d="M39.78125,144.5 L113.21875,144.5" id="Line-3"></path>
                    <path d="M39.78125,0.5 L113.21875,0.5" id="Line-3-Copy"></path>
                    <path d="M113.5,1.5 L167.114364,55.1143637" id="Line-4"></path>
                    <path d="M167.5,55.5 L167.5,91.5" id="Line-5"></path>
                </g>
                <g id="left-wall-copy" transform="translate(272.500000, 129.500000) scale(-1, 1) translate(-272.500000, -129.500000) translate(169.000000, 0.000000)">
                    <path d="M167.5,55.5 L206.5,55.5" id="Line-6"></path>
                    <path d="M167.5,91.5 L206.5,91.5" id="Line-6-Copy"></path>
                    <path d="M0.982285935,258.017714 L40.0288224,218.971178" id="Line"></path>
                    <path d="M0.982285935,40.0177141 L40.0288224,0.971177588" id="Line-Copy-2"></path>
                    <path d="M113.5,145.5 L167.5,91.5" id="Line-Copy"></path>
                    <path d="M39.5,0.497695865 L39.5,217.5" id="Line-2"></path>
                    <path d="M113.5,1.5 L113.5,145.5" id="Line-2-Copy"></path>
                    <path d="M39.78125,144.5 L113.21875,144.5" id="Line-3"></path>
                    <path d="M39.78125,0.5 L113.21875,0.5" id="Line-3-Copy"></path>
                    <path d="M113.5,1.5 L167.114364,55.1143637" id="Line-4"></path>
                    <path d="M167.5,55.5 L167.5,91.5" id="Line-5"></path>
                </g>
            </g>
        </g>
    </g>
</svg>